<svg xmlns="http://www.w3.org/2000/svg" width="1000" height="200" viewBox="0 0 1000 200" role="img" aria-label="Special Green LLC, lawn care, landscaping and irrigation"><g transform="translate(-48,31) scale(0.463)">
  <rect x="496" y="44" width="44" height="62" fill="#14582A"/>
  <path d="M400 20 L644 132 L588 132 L588 222 L212 222 L212 132 L156 132 Z" fill="#14582A"/>
  <path d="M306 222 L306 152 Q400 92 494 152 L494 222 Z" fill="#FFFFFF"/>
  <path d="M399 212 C352 190 328 140 344 100 C388 118 410 168 399 212 Z" fill="#3E8E3F"/>
  <path d="M401 212 C448 190 472 140 456 100 C412 118 390 168 401 212 Z" fill="#8CC63F"/>
  <path d="M399 212 C388 178 374 140 350 110" stroke="#FFFFFF" stroke-width="5" fill="none" stroke-linecap="round"/>
  <path d="M401 212 C412 178 426 140 450 110" stroke="#FFFFFF" stroke-width="5" fill="none" stroke-linecap="round"/></g><text x="292" y="104" font-family="Bitter, 'Bitstream Charter', Georgia, 'Times New Roman', serif" font-size="68" font-weight="700" fill="#14582A">Special Green <tspan font-family="Oswald, 'Arial Narrow', Impact, sans-serif" font-size="46">LLC</tspan></text><text x="296" y="142" font-family="Oswald, 'Arial Narrow', Impact, sans-serif" font-size="23" font-weight="600" letter-spacing="3.6" fill="#3E8E3F">LAWN CARE &#183; LANDSCAPING &#183; IRRIGATION</text></svg>